<svg fill="#000000" xmlns="http://www.w3.org/2000/svg" viewBox="0 0 512 512" width="64px" height="64px">
    <path d="M453.656,96.915c0-22.432-18.247-40.679-40.68-40.679c-22.427,0-40.679,18.247-40.679,40.679s18.252,40.674,40.679,40.674 C435.409,137.588,453.656,119.346,453.656,96.915z M392.299,96.915c0-11.407,9.277-20.679,20.68-20.679 c11.405,0,20.679,9.272,20.679,20.679c0,11.401-9.272,20.674-20.679,20.674C401.576,117.588,392.299,108.316,392.299,96.915z"/>
    <path d="M464.96,186.002h-30.635c24.39-26.265,55.635-48.311,55.635-89.087c0-42.452-34.536-76.983-76.982-76.983 c-42.445,0-76.979,34.531-76.979,76.983c0,40.723,31.134,62.705,55.636,89.087h-26.676c-13.783,0-25,11.216-25,25s11.217,25,25,25 H464.96c13.784,0,25-11.216,25-25S478.744,186.002,464.96,186.002z M356,96.915c0-31.421,25.563-56.983,56.978-56.983 c31.422,0,56.982,25.562,56.982,56.983c0,34.375-31.063,52.524-56.982,82.979C387.074,149.454,356,131.29,356,96.915z M464.96,216.002H364.959c-2.758,0-5-2.241-5-5s2.242-5,5-5H464.96c2.759,0,5,2.241,5,5S467.719,216.002,464.96,216.002z"/>
    <path d="M159.622,326.645c0-25.879-21.055-46.934-46.939-46.934c-25.879,0-46.934,21.055-46.934,46.934 s21.055,46.943,46.934,46.943C138.567,373.588,159.622,352.523,159.622,326.645z M85.749,326.645 c0-14.854,12.08-26.934,26.934-26.934s26.939,12.08,26.939,26.934c0,14.854-12.085,26.943-26.939,26.943 S85.749,341.498,85.749,326.645z"/>
    <path d="M175.271,435.951h-41.494c30.942-34.414,69.551-59.375,69.551-109.307c0-49.98-40.66-90.644-90.646-90.644 c-49.98,0-90.645,40.662-90.645,90.644c0,49.932,38.579,74.854,69.556,109.307H54.865c-15.469,0-28.057,12.589-28.057,28.058 s12.588,28.058,28.057,28.058h120.406c15.469,0,28.057-12.589,28.057-28.058S190.74,435.951,175.271,435.951z M42.038,326.645 c0-38.955,31.694-70.643,70.645-70.643c38.956,0,70.645,31.688,70.645,70.643c0,43.154-39.082,65.195-70.645,103.076 C81.115,391.84,42.038,369.799,42.038,326.645z M175.271,472.065H54.865c-4.443,0-8.057-3.613-8.057-8.058 c0-4.443,3.613-8.057,8.057-8.057h120.406c4.443,0,8.057,3.613,8.057,8.057C183.328,468.452,179.714,472.065,175.271,472.065z"/>
    <path d="M446.898,276H240.999c-13.784,0-25-11.211-25-24.998c0-13.784,11.216-25,25-25h15c5.522,0,10-4.478,10-10s-4.478-10-10-10 h-15c-24.81,0-45,20.186-45,45c0,24.813,20.19,44.998,45,44.998h205.899C457.43,296,466,304.574,466,315.102v0.752 c0,11.113-8.97,20.146-20,20.146H265.999c-22.056,0-40,17.949-40,40c0,22.061,17.944,40,40,40H396c11.03,0,20,8.975,20,20 c0,11.026-8.97,20.001-20,20.001H225.999c-5.522,0-10,4.482-10,10c0,5.527,4.478,10,10,10H396c22.056,0,40-17.939,40-40.001 c0-22.051-17.944-40-40-40H265.999c-11.03,0-20-8.975-20-20s8.97-20,20-20H446c22.056,0,40-18.008,40-40.146v-0.752 C486,293.539,468.461,276,446.898,276z"/>
    <path d="M75.998,206.002c22.056,0,40-17.944,40-40s-17.944-40-40-40s-40,17.944-40,40S53.942,206.002,75.998,206.002z M75.998,146.001c11.03,0,20,8.97,20,20c0,11.031-8.97,20-20,20c-11.025,0-20-8.97-20-20 C55.998,154.971,64.973,146.001,75.998,146.001z"/>
    <path d="M255.999,136.001c16.543,0,30-13.462,30-30c0-16.543-13.457-30-30-30s-30,13.457-30,30 C225.999,122.54,239.456,136.001,255.999,136.001z M255.999,96.001c5.513,0,10,4.487,10,10s-4.487,10-10,10 c-5.513,0-10-4.487-10-10S250.486,96.001,255.999,96.001z"/>
    <path d="M55.998,76.001h50c5.522,0,10-4.478,10-10c0-5.513,4.488-10,10-10c5.518,0,10,4.487,10,10c0,5.522,4.478,10,10,10 s10-4.478,10-10c0-11.03,8.975-20,20-20c11.03,0,20,8.97,20,20c0,5.522,4.478,10,10,10s10-4.478,10-10c0-22.056-17.944-40-40-40 c-13.066,0-24.688,6.299-31.992,16.021c-5.02-3.779-11.255-6.021-18.008-6.021c-13.038,0-24.161,8.359-28.287,20H55.998 c-5.522,0-10,4.478-10,10S50.476,76.001,55.998,76.001z"/>
    <circle cx="155.999" cy="196.002" r="10"/>
    <circle cx="185.999" cy="136.001" r="10"/>
    <circle cx="295.999" cy="56.001" r="10"/>
    <circle cx="315.999" cy="216.002" r="10"/>
    <path d="M466,406c-5.522,0-10,4.482-10,10c0,5.527,4.478,10,10,10s10-4.473,10-10C476,410.482,471.522,406,466,406z"/>
    <path d="M195.999,406c-5.523,0-10,4.482-10,10c0,5.527,4.478,10,10,10s10-4.473,10-10C205.999,410.482,201.521,406,195.999,406z"/>
    <circle cx="285.999" cy="216.002" r="10"/>
</svg>