<svg fill="#000000" xmlns="http://www.w3.org/2000/svg" viewBox="0 0 80 80" width="80px" height="80px">
    <path d="M 24 5 C 22.90625 5 22 5.90625 22 7 L 22 10 L 15 10 C 12.25 10 10 12.25 10 15 L 10 65 C 10 67.75 12.25 70 15 70 L 65 70 C 67.75 70 70 67.75 70 65 L 70 15 C 70 12.25 67.75 10 65 10 L 58 10 L 58 7 C 58 5.90625 57.09375 5 56 5 L 54 5 C 52.90625 5 52 5.90625 52 7 L 52 10 L 28 10 L 28 7 C 28 5.90625 27.09375 5 26 5 Z M 24 7 L 26 7 L 26 15 L 24 15 Z M 54 7 L 56 7 L 56 15 L 54 15 Z M 15 12 L 22 12 L 22 15 C 22 16.09375 22.90625 17 24 17 L 26 17 C 27.09375 17 28 16.09375 28 15 L 28 12 L 52 12 L 52 15 C 52 16.09375 52.90625 17 54 17 L 56 17 C 57.09375 17 58 16.09375 58 15 L 58 12 L 65 12 C 66.667969 12 68 13.332031 68 15 L 68 22 L 12 22 L 12 15 C 12 13.332031 13.332031 12 15 12 Z M 12 24 L 68 24 L 68 65 C 68 66.667969 66.667969 68 65 68 L 15 68 C 13.332031 68 12 66.667969 12 65 Z M 54.121094 33.148438 L 36.871094 49.78125 L 28.039063 40.722656 L 25.890625 42.816406 L 36.800781 54.015625 L 56.203125 35.308594 Z M 16 62 C 15.449219 62 15 62.449219 15 63 C 15 63.550781 15.449219 64 16 64 C 16.550781 64 17 63.550781 17 63 C 17 62.449219 16.550781 62 16 62 Z M 20 62 C 19.449219 62 19 62.449219 19 63 C 19 63.550781 19.449219 64 20 64 C 20.550781 64 21 63.550781 21 63 C 21 62.449219 20.550781 62 20 62 Z M 24 62 C 23.449219 62 23 62.449219 23 63 C 23 63.550781 23.449219 64 24 64 C 24.550781 64 25 63.550781 25 63 C 25 62.449219 24.550781 62 24 62 Z M 28 62 C 27.449219 62 27 62.449219 27 63 C 27 63.550781 27.449219 64 28 64 C 28.550781 64 29 63.550781 29 63 C 29 62.449219 28.550781 62 28 62 Z M 32 62 C 31.449219 62 31 62.449219 31 63 C 31 63.550781 31.449219 64 32 64 C 32.550781 64 33 63.550781 33 63 C 33 62.449219 32.550781 62 32 62 Z M 36 62 C 35.449219 62 35 62.449219 35 63 C 35 63.550781 35.449219 64 36 64 C 36.550781 64 37 63.550781 37 63 C 37 62.449219 36.550781 62 36 62 Z M 40 62 C 39.449219 62 39 62.449219 39 63 C 39 63.550781 39.449219 64 40 64 C 40.550781 64 41 63.550781 41 63 C 41 62.449219 40.550781 62 40 62 Z M 44 62 C 43.449219 62 43 62.449219 43 63 C 43 63.550781 43.449219 64 44 64 C 44.550781 64 45 63.550781 45 63 C 45 62.449219 44.550781 62 44 62 Z M 48 62 C 47.449219 62 47 62.449219 47 63 C 47 63.550781 47.449219 64 48 64 C 48.550781 64 49 63.550781 49 63 C 49 62.449219 48.550781 62 48 62 Z M 52 62 C 51.449219 62 51 62.449219 51 63 C 51 63.550781 51.449219 64 52 64 C 52.550781 64 53 63.550781 53 63 C 53 62.449219 52.550781 62 52 62 Z M 56 62 C 55.449219 62 55 62.449219 55 63 C 55 63.550781 55.449219 64 56 64 C 56.550781 64 57 63.550781 57 63 C 57 62.449219 56.550781 62 56 62 Z M 60 62 C 59.449219 62 59 62.449219 59 63 C 59 63.550781 59.449219 64 60 64 C 60.550781 64 61 63.550781 61 63 C 61 62.449219 60.550781 62 60 62 Z M 64 62 C 63.449219 62 63 62.449219 63 63 C 63 63.550781 63.449219 64 64 64 C 64.550781 64 65 63.550781 65 63 C 65 62.449219 64.550781 62 64 62 Z"/>
</svg>