<?xml version="1.0" encoding="UTF-8" standalone="no"?><!-- Generator: Gravit.io -->
<svg xmlns="http://www.w3.org/2000/svg" xmlns:xlink="http://www.w3.org/1999/xlink" style="isolation:isolate"
     viewBox="0 0 160 137.1" width="160pt" height="137.1pt">
    <defs>
        <clipPath id="_clipPath_a2e5N7JYdg5YfMYKHXPosvfTSVo0SHWB">
            <rect width="160" height="137.1"/>
        </clipPath>
    </defs>
    <g clip-path="url(#_clipPath_a2e5N7JYdg5YfMYKHXPosvfTSVo0SHWB)">
        <g>
            <g>
                <linearGradient id="_lgradient_0" x1="0.0003021854654229328" y1="0.5001233456724574"
                                x2="1.0000588484029387" y2="0.5001233456724574"
                                gradientTransform="matrix(160,0,0,122.826,0,-0.005)" gradientUnits="userSpaceOnUse">
                    <stop offset="0%" stop-opacity="1" style="stop-color:rgb(255,162,123)"/>
                    <stop offset="4.83%" stop-opacity="1" style="stop-color:rgb(240,174,146)"/>
                    <stop offset="14.860000000000001%" stop-opacity="1" style="stop-color:rgb(203,204,203)"/>
                    <stop offset="23.05%" stop-opacity="1" style="stop-color:rgb(170,231,255)"/>
                    <stop offset="27.279999999999998%" stop-opacity="1" style="stop-color:rgb(141,218,236)"/>
                    <stop offset="36.5%" stop-opacity="1" style="stop-color:rgb(84,193,198)"/>
                    <stop offset="44.4%" stop-opacity="1" style="stop-color:rgb(43,175,171)"/>
                    <stop offset="50.6%" stop-opacity="1" style="stop-color:rgb(17,164,154)"/>
                    <stop offset="54.32%" stop-opacity="1" style="stop-color:rgb(8,160,148)"/>
                    <stop offset="80.22%" stop-opacity="1" style="stop-color:rgb(164,124,79)"/>
                    <stop offset="100%" stop-opacity="1" style="stop-color:rgb(255,170,206)"/>
                </linearGradient>
                <path d=" M 59.517 63.292 C 58.974 63.674 58.451 64.338 57.888 64.378 C 44.897 65.524 34.44 56.314 33.877 43.263 C 33.253 28.784 41.82 15.31 56.42 9.217 C 72.467 2.5 88.756 2.681 104.925 9.217 C 106.151 9.719 107.418 10.323 108.383 11.187 C 110.113 12.736 111.299 12.374 112.928 10.906 C 118.82 5.617 125.557 1.937 133.46 0.509 C 144.42 -1.482 154.234 2.379 159.402 10.946 C 159.623 11.308 159.945 11.67 159.985 12.052 C 160.046 12.615 159.905 13.198 159.845 13.762 C 159.362 13.5 158.658 13.359 158.417 12.957 C 152.183 2.399 142.51 0.469 132.093 2.701 C 124.411 4.35 117.996 8.312 112.586 14.184 C 113.532 15.25 114.396 16.235 115.301 17.2 C 129.68 32.745 121.193 52.372 105.689 59.029 C 101.928 60.638 97.826 61.502 93.884 62.689 C 93.442 62.83 92.979 62.91 92.014 63.131 C 98.469 66.912 101.425 72.784 103.979 79.098 C 103.477 79.36 103.155 79.621 102.773 79.722 C 99.837 80.486 100.159 81.23 98.992 77.791 C 97.826 74.332 96.217 70.954 94.367 67.777 C 92.698 64.921 89.621 63.956 86.464 63.634 C 85.881 63.574 84.955 64.418 84.614 65.062 C 80.149 73.226 75.886 81.512 71.281 89.596 C 66.716 97.62 61.025 104.819 54.248 111.113 C 46.867 117.951 38.22 122.073 28.085 122.757 C 14.35 123.682 2.867 114.552 0.575 100.837 C -1.054 91.064 0.695 81.994 6.909 74.031 C 13.747 65.243 28.286 61.04 38.743 64.82 C 42.403 66.148 45.46 68.319 47.531 71.658 C 47.853 72.16 47.652 72.985 47.692 73.649 C 47.109 73.307 46.325 73.106 45.963 72.603 C 43.026 68.44 38.904 66.228 33.977 65.625 C 16.22 63.453 1.942 76.042 1.862 93.96 C 1.821 104.095 5.2 112.802 14.39 117.81 C 23.902 122.978 33.716 121.771 42.866 116.382 C 51.05 111.556 57.043 104.376 61.407 96.131 C 68.385 82.959 74.78 69.486 81.376 56.113 C 86.685 45.354 92.255 34.756 99.575 25.184 C 101.647 22.469 101.667 22.469 104.542 23.977 C 98.449 36.345 92.356 48.692 86.001 61.583 C 87.188 61.583 87.892 61.623 88.595 61.583 C 96.378 61.16 102.692 57.782 107.78 51.97 C 113.813 45.093 117.513 37.25 117.091 27.899 C 116.87 23.193 115.16 19.05 111.34 15.813 C 109.51 16.879 108.866 20.921 105.347 18.166 C 106.533 16.858 107.72 15.551 109.329 13.762 C 106.393 12.293 103.778 10.705 100.963 9.659 C 91.572 6.16 81.838 5.617 71.965 6.824 C 63.337 7.889 55.253 10.564 48.496 16.175 C 38.884 24.158 33.917 34.233 36.41 46.923 C 38.281 56.455 45.681 62.287 55.394 62.568 C 56.581 62.608 57.767 62.568 58.953 62.568 C 59.175 62.87 59.336 63.091 59.517 63.292 L 59.517 63.292 Z "
                      fill="url(#_lgradient_0)"/>
                <path d=" M 50.286 19.372 C 50.708 19.191 51.131 18.849 51.553 18.849 C 68.164 19.01 84.775 19.01 101.385 19.533 C 105.186 19.654 108.926 21.504 112.687 22.529 C 114.396 22.992 115.241 24.078 115.362 25.827 C 115.462 27.617 115.603 29.387 115.764 31.599 C 113.692 29.407 112.144 27.436 110.274 25.848 C 106.131 22.288 101.144 20.74 95.734 20.659 C 90.546 20.579 85.358 20.619 80.169 20.659 C 73.996 20.699 71.1 23.173 70.456 29.327 C 70.054 33.228 69.994 37.169 69.974 41.091 C 69.913 52.232 69.994 63.393 69.893 74.533 C 69.873 76.223 69.491 78.033 68.767 79.541 C 66.656 83.945 64.283 88.248 61.99 92.572 C 61.789 92.974 61.427 93.296 60.864 93.98 C 60.864 92.894 60.864 92.23 60.864 91.546 C 60.864 73.87 60.884 56.193 60.844 38.537 C 60.844 35.319 60.683 32.082 60.321 28.884 C 59.677 23.072 57.264 20.82 51.412 20.197 C 51.091 20.156 50.749 20.076 50.427 19.996 C 50.407 19.774 50.346 19.573 50.286 19.372 Z "
                      fill="rgb(98,130,105)"/>
                <path d=" M 76.529 84.93 C 76.449 82.799 77.535 82.859 78.641 82.859 C 83.769 82.859 88.877 83.04 93.985 82.799 C 102.149 82.416 109.409 79.883 114.477 72.985 C 118.036 68.138 119.504 62.508 119.866 56.636 C 120.148 51.89 120.55 47.365 122.581 42.86 C 124.049 39.562 123.928 35.54 124.512 31.78 C 125.175 32.806 126.14 34.012 126.744 35.38 C 132.274 47.647 132.354 59.793 124.753 71.195 C 119.786 78.676 112.023 82.477 103.376 83.523 C 94.488 84.588 85.498 84.508 76.529 84.93 L 76.529 84.93 Z "
                      fill="rgb(98,130,105)"/>
                <linearGradient id="_lgradient_1" x1="-0.00009370242502360071" y1="0.5003188538648806"
                                x2="1.0000590657626565" y2="0.5003188538648806"
                                gradientTransform="matrix(53.718,0,0,52.557,100.782,84.548)"
                                gradientUnits="userSpaceOnUse">
                    <stop offset="0%" stop-opacity="1" style="stop-color:rgb(255,162,123)"/>
                    <stop offset="4.83%" stop-opacity="1" style="stop-color:rgb(240,174,146)"/>
                    <stop offset="14.860000000000001%" stop-opacity="1" style="stop-color:rgb(203,204,203)"/>
                    <stop offset="23.05%" stop-opacity="1" style="stop-color:rgb(170,231,255)"/>
                    <stop offset="27.279999999999998%" stop-opacity="1" style="stop-color:rgb(141,218,236)"/>
                    <stop offset="36.5%" stop-opacity="1" style="stop-color:rgb(84,193,198)"/>
                    <stop offset="44.4%" stop-opacity="1" style="stop-color:rgb(43,175,171)"/>
                    <stop offset="50.6%" stop-opacity="1" style="stop-color:rgb(17,164,154)"/>
                    <stop offset="54.32%" stop-opacity="1" style="stop-color:rgb(8,160,148)"/>
                    <stop offset="80.22%" stop-opacity="1" style="stop-color:rgb(164,124,79)"/>
                    <stop offset="100%" stop-opacity="1" style="stop-color:rgb(255,170,206)"/>
                </linearGradient>
                <path d=" M 100.782 85.554 C 102.572 85.232 104.201 84.93 106.191 84.548 C 107.358 88.932 108.544 93.276 109.63 97.66 C 111.4 104.718 112.747 111.897 114.939 118.815 C 116.126 122.596 118.117 126.437 120.731 129.373 C 129.499 139.247 145.024 136.653 150.212 124.526 C 154.073 115.477 153.47 106.609 147.557 98.444 C 146.673 97.217 145.365 96.272 144.36 95.126 C 144.018 94.724 143.938 94.1 143.737 93.557 C 144.34 93.618 145.124 93.457 145.546 93.779 C 149.769 97.016 152.364 101.34 153.57 106.468 C 155.4 114.15 154.616 121.53 150.433 128.287 C 144.983 137.095 135.552 139.006 125.859 135.346 C 117.051 132.007 112.023 124.949 108.343 116.724 C 104.301 107.654 102.833 97.941 101.164 88.268 C 101.043 87.424 100.923 86.539 100.782 85.554 L 100.782 85.554 Z "
                      fill="url(#_lgradient_1)"/>
                <path d=" M 50.427 133.475 C 51.432 133.294 52.458 133.093 53.463 132.932 C 57.023 132.41 59.336 130.298 59.838 126.859 C 60.482 122.375 60.944 117.79 60.783 113.265 C 60.623 108.76 61.326 104.98 64.685 101.702 C 66.555 99.872 67.882 97.499 69.954 95.407 C 69.954 96.172 69.954 96.936 69.954 97.7 C 69.994 105.141 69.974 112.561 70.094 120.002 C 70.135 122.154 70.436 124.345 70.858 126.457 C 71.582 130.258 73.875 132.51 77.796 132.993 C 78.681 133.093 79.546 133.294 80.531 133.958 C 80.008 134.159 79.466 134.541 78.943 134.541 C 69.893 134.581 60.844 134.581 51.794 134.541 C 51.292 134.541 50.789 134.24 50.286 134.099 C 50.346 133.938 50.387 133.717 50.427 133.475 L 50.427 133.475 Z "
                      fill="rgb(98,130,105)"/>
                <linearGradient id="_lgradient_2" x1="-0.0009304583124283283" y1="0.500457337883959"
                                x2="1.0008988704377764" y2="0.500457337883959"
                                gradientTransform="matrix(9.51,0,0,29.461,71.14,29.387)" gradientUnits="userSpaceOnUse">
                    <stop offset="0%" stop-opacity="1" style="stop-color:rgb(255,162,123)"/>
                    <stop offset="4.83%" stop-opacity="1" style="stop-color:rgb(240,174,146)"/>
                    <stop offset="14.860000000000001%" stop-opacity="1" style="stop-color:rgb(203,204,203)"/>
                    <stop offset="23.05%" stop-opacity="1" style="stop-color:rgb(170,231,255)"/>
                    <stop offset="27.279999999999998%" stop-opacity="1" style="stop-color:rgb(141,218,236)"/>
                    <stop offset="36.5%" stop-opacity="1" style="stop-color:rgb(84,193,198)"/>
                    <stop offset="44.4%" stop-opacity="1" style="stop-color:rgb(43,175,171)"/>
                    <stop offset="50.6%" stop-opacity="1" style="stop-color:rgb(17,164,154)"/>
                    <stop offset="54.32%" stop-opacity="1" style="stop-color:rgb(8,160,148)"/>
                    <stop offset="80.22%" stop-opacity="1" style="stop-color:rgb(164,124,79)"/>
                    <stop offset="100%" stop-opacity="1" style="stop-color:rgb(255,170,206)"/>
                </linearGradient>
                <path d=" M 71.14 58.566 C 71.582 57.621 71.864 56.555 72.487 55.751 C 78.42 48.371 80.089 40.206 77.314 31.136 C 77.153 30.634 77.515 29.97 77.636 29.387 C 78.118 29.769 78.882 30.071 79.063 30.573 C 81.718 37.592 80.873 44.429 77.776 51.085 C 75.987 54.926 73.875 57.521 71.703 58.848 C 71.502 58.767 71.321 58.667 71.14 58.566 Z "
                      fill="url(#_lgradient_2)"/>
            </g>
        </g>
    </g>
</svg>